<svg xmlns="http://www.w3.org/2000/svg" viewBox="0 0 1000 1000">
<rect width="1000" height="1000" rx="120" fill="#17191c"/>
<svg x="115" y="105" width="770" height="790" viewBox="0 0 844 872">
<path fill="#027ac3" fill-rule="evenodd" d="M 1.528 1.786 L 1.035 3.073 76.052 153.103 L 151.068 303.134 152.449 302.817 L 153.830 302.500 164.950 280 C 171.065 267.625, 176.458 256.792, 176.933 255.926 C 177.408 255.060, 181.016 247.860, 184.950 239.926 C 188.884 231.992, 192.484 224.792, 192.950 223.926 C 193.416 223.060, 197.016 215.860, 200.950 207.926 C 204.884 199.992, 208.484 192.792, 208.950 191.926 C 209.416 191.060, 213.016 183.860, 216.950 175.926 C 220.884 167.992, 224.484 160.792, 224.950 159.926 C 225.416 159.060, 229.016 151.860, 232.950 143.926 C 236.884 135.992, 240.484 128.792, 240.950 127.926 C 241.416 127.060, 245.016 119.860, 248.950 111.926 C 252.884 103.992, 256.484 96.792, 256.950 95.926 C 257.416 95.060, 261.016 87.860, 264.950 79.926 C 268.884 71.992, 272.484 64.792, 272.950 63.926 C 273.416 63.060, 277.016 55.860, 280.950 47.926 C 284.884 39.992, 288.484 32.792, 288.950 31.926 C 292.789 24.795, 304 2.013, 304 1.345 L 304 0.500 153.011 0.500 L 2.022 0.500 1.528 1.786"/>
<path fill="#3eab39" fill-rule="evenodd" d="M 269.749 179.501 C 220.387 278.226, 180 359.603, 180 360.338 C 180 362.291, 419.780 841.573, 421.451 842.959 L 422.863 844.131 478.931 732.013 C 509.769 670.347, 535.004 619.355, 535.009 618.697 C 535.015 618.039, 519.443 586.315, 500.407 548.201 L 465.795 478.902 464.647 479.235 C 464.016 479.418, 454.500 497.634, 443.500 519.714 C 432.500 541.794, 423.040 559.891, 422.479 559.930 C 421.387 560.005, 321.963 361.802, 322.054 359.731 C 322.083 359.054, 346.496 309.900, 376.304 250.500 L 430.500 142.500 530 142.242 C 584.725 142.100, 630.003 142.176, 630.618 142.410 L 631.736 142.836 623.801 158.522 L 615.866 174.208 616.404 175.611 L 616.942 177.014 686.721 176.757 L 756.500 176.500 799.500 90.793 C 823.150 43.654, 842.837 4.766, 843.250 4.376 C 843.663 3.986, 844 2.842, 844 1.833 L 844 0 601.749 0 L 359.497 0 269.749 179.501"/>
<path fill="#bd1825" fill-rule="evenodd" d="M 432.232 247.250 C 429.805 250.244, 380.003 351.196, 380.532 352.051 L 381.118 353 453 353 L 524.882 353 525.341 353.750 C 525.593 354.163, 518.147 369.820, 508.795 388.544 L 491.791 422.589 526.897 492.794 C 546.205 531.407, 562.340 562.996, 562.751 562.990 C 563.843 562.976, 720.091 249.824, 720.042 247.750 L 720 246 576.622 246 L 433.245 246 432.232 247.250"/>
</svg>
</svg>
