<svg xmlns="http://www.w3.org/2000/svg" viewBox="0 0 1000 1000">
<rect width="1000" height="1000" rx="120" fill="#17191c"/>
<svg x="70" y="180" width="860" height="640" viewBox="25 60 1252 892">
<path fill="#b8bec5" fill-rule="evenodd" d="M 31.677 67.656 C 30.020 69.313, 31.598 72.371, 40.638 85.017 C 45.939 92.433, 58.168 109.750, 67.814 123.500 C 77.460 137.250, 87.186 151.099, 89.426 154.277 C 91.667 157.454, 95.975 163.574, 99 167.878 C 105.612 177.286, 124.270 203.584, 131.722 214 C 136.437 220.591, 149.892 239.726, 167.066 264.265 C 183.629 287.932, 204.828 317.844, 211.673 327.207 C 218.555 336.620, 227.960 349.957, 245.544 375.238 C 248.318 379.226, 251.314 382.629, 252.201 382.800 L 253.815 383.111 266.057 365.806 C 293.900 326.447, 301.702 315.374, 303.264 313 C 304.168 311.625, 308.347 305.775, 312.549 300 C 316.752 294.225, 321.243 287.925, 322.529 286 C 324.783 282.629, 331.228 273.456, 345 254.021 C 353.862 241.514, 360.284 232.409, 364.209 226.785 C 366.019 224.191, 370.875 217.357, 375 211.597 C 379.125 205.838, 386.325 195.691, 391 189.050 C 395.675 182.409, 403.775 170.937, 409 163.558 C 425.195 140.684, 438.262 122.065, 444.055 113.609 C 447.110 109.149, 453.498 100.100, 458.251 93.500 C 463.004 86.900, 468.508 79.250, 470.482 76.500 L 474.072 71.500 473.786 69.500 L 473.500 67.500 252.927 67.240 C 131.612 67.097, 32.049 67.284, 31.677 67.656 M 559.121 67.904 C 558.363 68.384, 553.316 75.015, 547.906 82.639 C 530.399 107.312, 504.649 143.777, 498.754 152.246 C 490.405 164.239, 482.642 175.194, 473 188.592 C 465.459 199.071, 457.570 210.252, 445.195 228 C 434.500 243.340, 393.447 301.517, 383.500 315.430 C 381.850 317.738, 375.325 326.972, 369 335.950 C 362.675 344.928, 354.908 355.924, 351.739 360.387 C 348.571 364.849, 344.884 370.075, 343.545 372 C 342.207 373.925, 339.507 377.750, 337.546 380.500 C 335.585 383.250, 331.025 389.775, 327.413 395 C 323.800 400.225, 319.330 406.525, 317.478 409 C 315.626 411.475, 309.811 419.801, 304.555 427.501 L 295 441.503 295 443.665 L 295 445.827 301.216 454.163 C 304.634 458.749, 309.922 466.141, 312.966 470.591 C 323.625 486.176, 353.391 528.561, 363.466 542.500 C 369.561 550.934, 374.092 557.307, 384.500 572.085 C 390 579.894, 396.437 589.032, 398.804 592.392 C 401.172 595.751, 404.657 600.750, 406.550 603.500 C 408.443 606.250, 412.447 611.875, 415.448 616 C 418.448 620.125, 424.325 628.450, 428.508 634.500 C 432.691 640.550, 438.989 649.550, 442.504 654.500 C 448.776 663.335, 452.775 668.996, 461.250 681.039 C 463.587 684.361, 467.653 690.099, 470.284 693.789 C 472.915 697.480, 476.629 702.750, 478.537 705.500 C 480.444 708.250, 484.723 714.325, 488.045 719 C 491.367 723.675, 495.296 729.300, 496.777 731.500 C 498.257 733.700, 502.860 740.225, 507.005 746 C 511.151 751.775, 515.317 757.625, 516.263 759 C 517.210 760.375, 519.577 763.750, 521.523 766.500 C 523.469 769.250, 528.861 776.900, 533.506 783.500 C 551.745 809.416, 554.121 812.769, 559.725 820.500 C 565.346 828.253, 589.106 861.902, 597.761 874.364 C 600.104 877.739, 603.828 882.975, 606.036 886 C 610.113 891.585, 619.097 904.404, 628.463 918 C 636.019 928.969, 645.604 942.235, 647.444 944.273 L 649.046 946.046 650.940 945.032 C 651.981 944.475, 655.684 939.964, 659.167 935.008 C 662.650 930.052, 668.327 922.061, 671.783 917.249 C 675.238 912.437, 680.884 904.450, 684.329 899.500 C 687.774 894.550, 694.591 884.875, 699.478 878 C 704.364 871.125, 709.969 863.199, 711.931 860.387 C 721.094 847.261, 729.275 835.743, 738.022 823.657 C 743.258 816.421, 748.883 808.399, 750.522 805.831 C 752.160 803.263, 758.905 793.588, 765.510 784.331 C 772.116 775.074, 779.316 764.919, 781.510 761.765 C 786.999 753.874, 793.233 745.075, 801.500 733.545 C 813.795 716.399, 815 714.567, 815 713.010 C 815 710.908, 809.853 703.329, 781 662.948 C 766.926 643.251, 759.342 632.520, 753.474 624 C 751.012 620.425, 745.639 612.775, 741.535 607 C 737.431 601.225, 731.558 592.900, 728.484 588.500 C 718.224 573.813, 715.167 569.722, 713.844 568.904 L 712.531 568.092 710.159 570.296 C 708.854 571.508, 703.897 578.033, 699.143 584.796 C 694.390 591.559, 688.212 600.334, 685.415 604.296 C 675.604 618.197, 669.052 627.586, 662.540 637.078 C 658.925 642.346, 654.699 647.873, 653.147 649.359 L 650.326 652.062 648.698 651.438 C 647.803 651.094, 645.491 648.493, 643.561 645.657 C 641.631 642.820, 638.268 638.025, 636.089 635 C 633.909 631.975, 629.775 626.125, 626.902 622 C 624.030 617.875, 618.489 610.033, 614.590 604.572 C 604.209 590.037, 597.054 579.881, 588.469 567.500 C 584.274 561.450, 579.190 554.196, 577.171 551.380 C 575.152 548.564, 570.125 541.440, 566 535.550 C 561.875 529.660, 557.375 523.340, 556 521.506 C 553.290 517.892, 546.114 507.725, 522.469 474 C 515.212 463.650, 508.759 454.658, 505.250 450.007 L 502 445.700 502 443.480 L 502 441.260 506.750 434.670 C 509.363 431.045, 515.325 422.629, 520 415.967 C 524.675 409.305, 531.563 399.499, 535.307 394.177 C 539.051 388.855, 543.776 382.077, 545.807 379.115 C 547.838 376.153, 550.400 372.494, 551.500 370.985 C 554.080 367.445, 570.594 344.144, 574.500 338.534 C 576.150 336.164, 578.883 332.262, 580.574 329.862 C 586.412 321.579, 595.675 308.447, 606.577 293 C 612.594 284.475, 618.188 276.522, 619.008 275.326 C 633.861 253.681, 659.852 217.806, 661.810 216.250 L 663.382 215 810.223 215 L 957.063 215 957.612 216.431 L 958.161 217.861 951.830 226.935 C 948.349 231.925, 943.617 238.747, 941.316 242.094 L 937.132 248.180 937.624 249.462 L 938.116 250.744 942.697 251.372 C 945.217 251.717, 990.214 252, 1042.689 252 L 1138.099 252 1140.892 250.556 L 1143.685 249.111 1148.373 242.306 C 1158.239 227.981, 1191.352 180.939, 1198.500 171.091 C 1201.250 167.303, 1208.900 156.488, 1215.500 147.058 C 1222.100 137.628, 1231.132 124.869, 1235.572 118.706 C 1240.011 112.543, 1246.883 102.775, 1250.842 97 C 1258.864 85.298, 1263.935 78.127, 1267.670 73.205 L 1270.170 69.910 1268.963 68.455 L 1267.755 67 914.128 67.015 L 560.500 67.031 559.121 67.904 M 662.990 328.750 C 661.207 330.813, 656.288 337.450, 652.060 343.500 C 642.792 356.759, 611.771 400.897, 607.782 406.500 C 606.216 408.700, 602.137 414.498, 598.717 419.385 C 595.298 424.272, 591.887 429.103, 591.138 430.121 L 589.775 431.971 590.356 433.486 L 590.937 435 695.846 435 L 800.755 435 801.881 436.357 L 803.008 437.714 794.547 449.607 C 789.894 456.148, 785.283 462.625, 784.300 464 C 778.991 471.426, 760.167 498.180, 757.316 502.350 C 755.492 505.018, 754 507.778, 754 508.483 C 754 509.648, 781.543 549.144, 822.004 606 C 824.548 609.575, 829.076 616.010, 832.065 620.300 C 835.054 624.590, 839.750 631.200, 842.500 634.990 C 845.250 638.780, 849.214 644.382, 851.310 647.440 L 855.120 653 856.994 653 L 858.869 653 864.244 645.250 C 871.476 634.824, 908.767 582.014, 924 560.627 C 926.475 557.152, 931.300 550.302, 934.723 545.404 C 952.869 519.438, 958.114 511.979, 964.500 503.055 C 968.350 497.675, 975.325 487.799, 980 481.110 C 984.675 474.420, 990.075 466.756, 992 464.079 C 997.090 457.001, 1004.560 446.451, 1016.132 430 C 1021.742 422.025, 1030.949 408.975, 1036.592 401 C 1042.235 393.025, 1049.473 382.769, 1052.676 378.208 C 1055.879 373.647, 1062.101 364.872, 1066.502 358.708 C 1070.904 352.544, 1076.673 344.350, 1079.324 340.500 C 1081.975 336.650, 1085.084 332.283, 1086.233 330.796 L 1088.322 328.092 1087.038 326.546 L 1085.755 325 875.994 325 L 666.232 325 662.990 328.750"/>
</svg>
</svg>
